<svg width="241" height="300" viewBox="0 0 241 300" fill="none" xmlns="http://www.w3.org/2000/svg">
<path d="M130.288 24.2197C124.939 18.764 125.26 16.9454 125.474 16.6245C127.079 13.0944 125.581 8.81537 121.944 7.21075C118.414 5.60613 114.135 7.10378 112.531 10.7409C110.819 14.485 110.926 18.1222 111.996 21.5454C105.899 17.2664 99.8017 10.9549 100.123 7.95957C100.55 4.10848 97.7692 0.578319 93.9184 0.0434459C90.0675 -0.384453 86.5376 2.39689 86.0027 6.24798C85.04 14.2711 90.3884 21.4384 95.9508 26.7871C53.4843 37.3776 22.0356 74.7118 22.0356 119.32C22.0356 172.166 66.1066 214.956 120.447 214.956C174.786 214.956 218.857 172.166 218.857 119.32C218.857 69.791 180.028 29.0336 130.288 24.2197Z" fill="#80A6CB"/>
<path d="M171.157 211.757C174.298 205.008 174.37 198.385 171.317 196.964C168.264 195.543 163.243 199.862 160.101 206.611C156.96 213.36 156.888 219.983 159.941 221.404C162.994 222.825 168.016 218.506 171.157 211.757Z" fill="#0D0B0A"/>
<path d="M83.6859 221.408C86.7388 219.986 86.6671 213.363 83.5259 206.614C80.3846 199.866 75.3633 195.547 72.3104 196.968C69.2576 198.389 69.3292 205.012 72.4704 211.761C75.6117 218.51 80.633 222.829 83.6859 221.408Z" fill="#0D0B0A"/>
<path d="M78.301 209.392L118.521 297.325C120.126 300.962 124.511 300.855 126.116 297.218L165.159 209.071C171.577 194.522 162.913 176.979 149.221 176.979H94.2393C80.3334 176.979 71.562 194.843 78.301 209.392Z" fill="#24201B"/>
<path d="M140.449 170.455C133.603 170.455 127.399 172.273 122.372 175.162C117.344 172.273 111.033 170.455 104.294 170.455C87.607 170.455 74.022 180.831 74.022 193.561C74.022 206.291 87.607 216.668 104.294 216.668C111.14 216.668 117.344 214.849 122.372 211.961C127.399 214.849 133.603 216.668 140.449 216.668C157.136 216.668 170.721 206.291 170.721 193.561C170.721 180.831 157.136 170.455 140.449 170.455Z" fill="white"/>
<path d="M218.109 158.045C230.751 158.045 241 141.714 241 121.567C241 101.421 230.751 85.0887 218.109 85.0887C205.466 85.0887 195.217 101.421 195.217 121.567C195.217 141.714 205.466 158.045 218.109 158.045Z" fill="#E98F5B"/>
<path d="M232.806 122.574C233.673 113.161 229.608 105.091 223.725 104.548C217.842 104.006 212.37 111.197 211.502 120.61C210.634 130.023 214.7 138.094 220.583 138.636C226.466 139.179 231.938 131.987 232.806 122.574Z" fill="#0D0B0A"/>
<path d="M22.8912 158.045C35.5337 158.045 45.7825 141.714 45.7825 121.567C45.7825 101.421 35.5337 85.0887 22.8912 85.0887C10.2488 85.0887 0 101.421 0 121.567C0 141.714 10.2488 158.045 22.8912 158.045Z" fill="#E98F5B"/>
<path d="M23.7095 138.611C29.5924 138.068 33.658 129.998 32.7903 120.584C31.9225 111.171 26.4501 103.98 20.5672 104.522C14.6843 105.065 10.6187 113.135 11.4864 122.548C12.3542 131.962 17.8266 139.153 23.7095 138.611Z" fill="#0D0B0A"/>
</svg>
