<svg width="240" height="194" viewBox="0 0 240 194" fill="none" xmlns="http://www.w3.org/2000/svg">
<path d="M119.069 194C125.868 194 131.38 178.427 131.38 159.216C131.38 140.005 125.868 124.432 119.069 124.432C112.269 124.432 106.757 140.005 106.757 159.216C106.757 178.427 112.269 194 119.069 194Z" fill="#995068"/>
<path d="M76.058 31.8585C66.0951 60.3182 48.2753 109.885 45.7643 108.621C42.4434 106.802 2.34885 7.11441 0.0808716 1.50153L76.058 31.8585Z" fill="#80A6CB"/>
<path d="M239.595 1.2702C239.595 1.2702 197.232 106.65 193.83 108.468C190.428 110.366 156.814 12.4169 156.814 12.4169C156.814 12.4169 217.077 -3.9474 239.595 1.2702Z" fill="#80A6CB"/>
<path d="M82.862 12.4156C82.862 12.4156 80.1081 20.4792 76.0581 31.863L0.080999 1.50606C-7.54363e-08 1.34795 0 1.2689 0 1.2689C22.5177 -4.02776 82.862 12.4156 82.862 12.4156Z" fill="#393430"/>
<path d="M157.219 12.1735C157.219 12.1735 159.973 20.158 164.023 31.6209L239.838 1.26397C239.919 1.10586 240 1.02681 240 1.02681C217.482 -4.1908 157.219 12.1735 157.219 12.1735Z" fill="#393430"/>
<path d="M166.939 58.2621C165.319 58.2621 163.78 58.3412 162.16 58.4993C161.998 55.1 161.431 51.7797 160.54 48.6175C155.356 30.1187 138.103 16.5213 117.611 16.5213C99.5477 16.5213 83.9959 27.1146 77.03 42.4512C74.762 47.3526 73.466 52.6493 73.142 58.2621C55.9702 58.3412 41.1474 67.9859 33.7765 82.1366C34.4245 86.4056 35.4775 90.8326 37.1785 95.4178C39.5274 102.058 43.0104 109.015 47.6273 116.13C49.0043 117.79 50.3003 119.529 51.8393 121.269C53.6213 123.324 55.5652 125.38 57.7522 127.198C60.1012 129.174 62.6931 130.992 65.5281 132.415C70.7931 135.103 73.871 140.242 76.301 146.013C78.812 152.1 80.4319 158.82 82.8619 164.195C91.1238 187.2 107.729 186.489 119.392 173.919C119.473 173.84 119.797 172.97 119.878 172.812C119.878 173.049 120.202 173.919 120.364 173.919C132.028 186.489 148.714 187.2 156.895 164.195C159.325 158.82 160.945 152.021 163.456 145.934C165.805 140.163 168.964 135.024 174.229 132.415C177.955 130.597 181.114 128.146 183.868 125.459C186.217 123.245 188.242 120.873 190.186 118.502C190.834 117.711 191.401 116.921 192.049 116.13C196.747 109.015 200.149 102.058 202.498 95.4178C204.199 90.5164 205.413 85.7732 205.98 81.267C198.529 67.5906 183.868 58.2621 166.939 58.2621Z" fill="#393430"/>
<path d="M206.142 81.9799C198.61 68.3035 183.949 58.975 167.02 58.975C165.4 58.975 163.78 59.0541 162.241 59.2122C162.079 55.8129 161.512 52.4926 160.621 49.4094C155.437 30.8316 138.184 17.2342 117.691 17.2342C99.6287 17.2342 84.0769 27.9066 77.111 43.1641C74.924 48.0655 73.547 53.3622 73.304 58.975C64.7181 59.0541 56.6992 61.4257 49.8953 65.6947C43.1723 69.8846 37.5834 75.7346 33.9385 82.6914C30.4555 59.9237 39.9324 41.0297 55.4842 27.7485C63.3411 20.9498 72.818 15.6531 82.9429 12.0957C94.6878 7.82672 107.405 5.92941 119.554 6.56185H120.445C132.595 5.92941 145.312 7.82672 157.057 12.0957C167.182 15.6531 176.659 20.9498 184.597 27.7485C199.906 40.8715 209.382 59.5284 206.142 81.9799Z" fill="#BFC0C4"/>
<path d="M136.403 151.705C134.54 149.492 128.789 151.152 123.605 155.421C122.066 156.686 120.851 157.951 119.879 159.295C118.826 158.03 117.611 156.686 116.153 155.421C110.969 151.152 105.218 149.492 103.355 151.705C101.492 153.919 104.165 159.136 109.349 163.405C113.075 166.41 116.963 168.07 119.636 167.991C119.717 167.991 119.798 167.991 119.96 167.991C120.041 167.991 120.122 167.991 120.284 167.991C122.957 168.07 126.845 166.41 130.571 163.405C135.593 159.136 138.347 153.919 136.403 151.705Z" fill="#0D0B0A"/>
<path d="M174.877 100.477C163.294 103.56 155.356 98.9751 152.683 94.469C150.173 90.3582 150.901 85.5358 154.789 81.504C157.219 78.9743 160.864 76.6817 165.724 75.1006C166.21 74.9425 166.777 74.7844 167.263 74.6263C177.793 71.5432 187.108 74.5472 189.133 81.6621C190.267 85.9311 186.622 97.394 174.877 100.477Z" fill="#80A6CB"/>
<path d="M167.743 79.5272C167.743 87.2745 164.828 93.5198 161.266 93.5198C157.946 93.5198 155.193 88.2232 154.788 81.2664C157.217 78.7366 160.861 76.444 165.719 74.863C166.205 74.7048 166.771 74.5467 167.257 74.3886C167.5 76.0488 167.743 77.788 167.743 79.5272Z" fill="#393430"/>
<path d="M171.711 87.9071C176.183 87.9071 179.808 86.456 179.808 84.6659C179.808 82.8758 176.183 81.4247 171.711 81.4247C167.239 81.4247 163.614 82.8758 163.614 84.6659C163.614 86.456 167.239 87.9071 171.711 87.9071Z" fill="white"/>
<path d="M64.7186 100.477C76.3015 103.56 84.2394 98.9751 86.9123 94.469C89.4233 90.3582 88.6943 85.5358 84.8064 81.504C82.3764 78.9743 78.7314 76.6817 73.8715 75.1006C73.3855 74.9425 72.8185 74.7844 72.3325 74.6263C61.8026 71.5432 52.4877 74.5472 50.4628 81.6621C49.3288 85.9311 52.9737 97.394 64.7186 100.477Z" fill="#80A6CB"/>
<path d="M71.8385 79.37C71.8385 87.1173 74.7533 93.3626 78.3159 93.3626C81.6356 93.3626 84.3885 88.066 84.7934 81.1092C82.3643 78.5794 78.7208 76.2869 73.8627 74.7058C73.3769 74.5477 72.8101 74.3895 72.3243 74.2314C72.0814 75.8125 71.8385 77.5517 71.8385 79.37Z" fill="#393430"/>
<path d="M69.7335 87.9076C74.2052 87.9076 77.8303 86.4564 77.8303 84.6663C77.8303 82.8762 74.2052 81.4251 69.7335 81.4251C65.2618 81.4251 61.6367 82.8762 61.6367 84.6663C61.6367 86.4564 65.2618 87.9076 69.7335 87.9076Z" fill="white"/>
</svg>
