<svg width="240" height="252" viewBox="0 0 240 252" fill="none" xmlns="http://www.w3.org/2000/svg">
<path d="M99.3266 67.7863C62.2809 -0.273493 3.04692 -3.28327 0.603277 1.57121C-1.84037 6.42568 3.73115 56.1355 6.76127 80.0195C8.71619 95.2626 14.9719 100.505 19.3705 103.03C16.8291 107.01 15.3629 111.768 15.3629 116.816C15.3629 131.38 27.2879 143.225 41.9498 143.225C56.6117 143.225 68.5367 131.38 68.5367 116.816C68.5367 115.263 68.3412 113.807 68.1457 112.35C94.6348 113.03 119.756 105.457 99.3266 67.7863Z" fill="#F48FB1"/>
<path d="M140.673 67.7756C177.719 -0.284197 236.953 -3.39106 239.397 1.56051C241.84 6.51207 236.269 56.1248 233.239 80.0088C231.284 95.2519 225.028 100.495 220.63 103.019C223.171 107 224.637 111.757 224.637 116.806C224.637 131.369 212.712 143.214 198.05 143.214C183.388 143.214 171.463 131.369 171.463 116.806C171.463 115.252 171.659 113.796 171.854 112.34C145.365 113.019 120.245 105.446 140.673 67.7756Z" fill="#F48FB1"/>
<path d="M210.953 157.97L201.471 185.932V186.029C201.471 186.029 200.103 190.01 198.539 194.767C196.095 202.146 192.87 211.467 192.772 211.661C187.592 220.69 180.358 228.652 171.659 235.059L171.561 235.157C164.719 240.205 156.997 244.283 148.591 247.099C148.395 247.196 148.102 247.293 147.907 247.39C144.486 248.555 140.869 249.429 137.252 250.108C132.854 250.982 128.358 251.468 123.763 251.662C122.591 251.759 121.32 251.759 120.147 251.759C120.147 251.759 120.147 251.759 120.049 251.759C119.072 251.759 118.094 251.759 117.117 251.662C112.327 251.468 107.538 250.982 102.944 250.108C99.2292 249.429 95.6126 248.458 92.0938 247.293C72.4469 240.788 56.3188 227.681 46.9352 210.884V210.787L41.4614 194.767L38.8223 186.903V186.806L28.9499 158.553C27.2883 153.504 26.604 148.359 26.7995 143.213C27.1905 134.96 29.9274 126.902 35.0102 120.105L65.4092 79.2308C69.8077 73.2112 75.7702 68.648 82.417 65.7353C87.6952 63.4052 93.4622 62.2401 99.4247 62.2401H142.335C156.117 62.2401 169.02 68.9393 176.937 80.1046L205.479 120.397C213.299 131.271 215.254 145.252 210.953 157.97Z" fill="#8B6C60"/>
<path d="M166.102 204.135C160.531 181.027 142.057 157.143 120.162 157.143C98.1689 157.143 79.695 181.027 74.2212 204.135C63.4691 197.241 51.7396 194.134 41.4763 195.008L46.9501 211.028V211.125C56.3337 227.922 72.4618 241.029 92.1087 247.534C95.4321 248.893 99.1464 249.864 103.056 250.543C107.455 251.417 112.244 251.806 117.132 251.903C118.109 251.903 119.087 252 120.064 252C120.064 252 120.064 252 120.162 252C121.335 252 122.605 252 123.778 251.903C128.47 251.806 132.966 251.32 137.17 250.543C140.982 249.864 144.598 248.893 147.922 247.534C148.117 247.437 148.41 247.339 148.606 247.242C157.012 244.427 164.734 240.349 171.576 235.3C171.674 235.3 171.674 235.3 171.674 235.203C180.373 228.795 187.509 220.834 192.787 211.805C192.885 211.611 196.013 202.29 198.554 194.911C188.388 194.231 176.757 197.338 166.102 204.135Z" fill="#F9E6D8"/>
<path d="M146.245 232.246C137.936 234.868 128.65 236.713 119.951 236.421C111.252 236.713 102.063 234.965 93.7551 232.344C72.7397 225.547 57.5891 213.508 72.251 217.489C76.7473 218.751 81.6346 219.236 86.4241 219.236C103.432 219.431 119.951 213.799 119.951 213.799C119.951 213.799 136.47 219.431 153.478 219.236C158.267 219.139 163.057 218.654 167.651 217.489C182.411 213.411 167.26 225.45 146.245 232.246Z" fill="#0D0B0A"/>
<path d="M153.479 219.139C152.013 223.993 149.471 228.459 146.148 232.246C139.794 239.528 130.411 244.091 119.952 244.091C109.493 244.091 100.109 239.528 93.756 232.343C90.4326 228.654 87.8912 224.187 86.425 219.236C103.433 219.43 119.952 206.032 119.952 206.032C119.952 206.032 136.471 219.333 153.479 219.139Z" fill="#F48FB1"/>
<path d="M91.214 147.68C92.6802 139.525 87.1087 131.758 74.304 132.243C61.988 132.729 54.1683 144.476 52.7021 152.632C51.2359 160.788 61.8902 157.584 74.0107 159.817C86.1312 162.05 89.7478 155.836 91.214 147.68Z" fill="#F9E6D8"/>
<path d="M148.786 146.321C147.32 138.166 152.891 130.398 165.696 130.884C178.012 131.369 185.832 143.117 187.298 151.273C188.764 159.428 178.11 156.224 165.989 158.457C153.869 160.593 150.252 154.379 148.786 146.321Z" fill="#F9E6D8"/>
<path d="M82.2213 71.6596C82.9055 69.6207 74.8904 35.9306 67.9504 27.4839C61.0105 19.0371 103.823 63.5041 103.823 63.5041L82.2213 71.6596Z" fill="#8B6C60"/>
<path d="M159.538 70.3984C158.854 68.3595 166.869 34.6694 173.809 26.2226C180.749 17.7758 137.936 62.2428 137.936 62.2428L159.538 70.3984Z" fill="#8B6C60"/>
<path d="M101.868 181.662C101.868 172.147 109.981 170.302 120.049 170.302C130.117 170.302 138.23 172.05 138.23 181.662C138.23 191.274 124.056 204.284 120.049 204.284C115.553 204.187 101.868 191.177 101.868 181.662Z" fill="#24201B"/>
<path d="M115.557 184.673C115.557 187.1 112.918 189.042 109.692 189.042C106.467 189.042 103.827 187.1 103.827 184.673C103.827 182.246 106.467 177.294 109.692 177.294C112.918 177.294 115.557 182.246 115.557 184.673Z" fill="#0D0B0A"/>
<path d="M135.689 184.673C135.689 187.1 133.05 189.042 129.824 189.042C126.599 189.042 123.959 187.1 123.959 184.673C123.959 182.246 126.599 177.294 129.824 177.294C133.05 177.294 135.689 182.246 135.689 184.673Z" fill="#0D0B0A"/>
<path d="M80.2585 165.06C78.7923 165.546 77.0329 165.934 75.1757 166.225C69.4087 167.002 62.762 165.643 56.995 160.885C56.0175 160.109 55.04 159.138 54.0626 158.07C50.5437 154.089 52.1077 148.264 56.995 146.225C58.1679 145.739 59.5364 145.254 60.807 144.866C66.5741 143.312 73.514 143.312 80.1607 148.458C81.3337 149.429 82.4089 150.4 83.2886 151.273C88.9579 157.196 87.7849 162.536 80.2585 165.06Z" fill="white"/>
<path d="M84.1758 150.496C83.1983 149.428 82.1231 148.457 80.9501 147.584C75.0854 143.02 68.2432 141.758 60.619 143.797C59.446 144.088 58.1753 144.574 56.6114 145.156C53.8745 146.321 51.9196 148.555 51.3331 151.37C50.7467 153.992 51.4309 156.71 53.2881 158.846C54.2655 159.914 55.243 160.982 56.3182 161.759C60.9122 165.545 66.386 167.584 72.0553 167.584C73.1305 167.584 74.3034 167.487 75.3786 167.39C77.4313 167.099 79.1907 166.71 80.7547 166.128C85.7397 164.38 87.4014 161.759 87.8901 159.817C88.2811 157.778 88.0856 154.574 84.1758 150.496ZM54.9497 157.39C53.5813 155.836 52.9948 153.894 53.4835 151.953C53.9723 149.914 55.4385 148.166 57.4911 147.292C58.9573 146.71 60.1303 146.321 61.2055 146.03C61.4987 145.933 61.7919 145.933 62.1829 145.933C60.4235 147.972 58.9573 150.496 58.3708 153.506C57.8821 156.128 58.1754 158.555 58.8596 160.885C58.4686 160.594 58.0776 160.399 57.7844 160.205C56.8069 159.234 55.8294 158.361 54.9497 157.39ZM85.6419 159.234C85.1532 161.176 83.1983 162.827 79.9727 163.992C79.5817 164.089 79.093 164.186 78.702 164.283C80.0704 162.438 81.1456 160.205 81.6344 157.681C82.0253 155.351 81.9276 153.118 81.4389 151.079C81.8299 151.37 82.2208 151.758 82.5141 152.05C85.0555 154.671 86.1307 157.195 85.6419 159.234Z" fill="#0D0B0A"/>
<path d="M159.148 164.086C160.614 164.571 162.373 164.96 164.231 165.251C169.998 166.028 176.644 164.669 182.411 159.911C183.389 159.134 184.366 158.164 185.344 157.096C188.863 153.115 187.299 147.29 182.411 145.251C181.238 144.765 179.87 144.28 178.599 143.891C172.832 142.338 165.892 142.338 159.246 147.484C158.073 148.455 156.997 149.426 156.118 150.299C150.448 156.222 151.621 161.562 159.148 164.086Z" fill="white"/>
<path d="M183.388 145.252C181.824 144.573 180.553 144.184 179.38 143.893C171.756 141.757 164.914 143.019 159.049 147.679C157.876 148.553 156.801 149.524 155.823 150.592C151.914 154.67 151.718 157.971 152.207 159.913C152.695 161.855 154.357 164.476 159.342 166.224C160.808 166.709 162.568 167.194 164.718 167.486C165.793 167.68 166.966 167.68 168.042 167.68C173.711 167.68 179.185 165.641 183.779 161.855C184.854 160.981 185.831 160.01 186.809 158.942C188.666 156.903 189.448 154.184 188.764 151.466C188.08 148.65 186.222 146.417 183.388 145.252ZM160.026 163.99C156.801 162.922 154.846 161.272 154.357 159.233C153.868 157.194 154.944 154.67 157.485 151.951C157.778 151.563 158.267 151.272 158.56 150.98C158.072 153.019 157.974 155.252 158.365 157.583C158.853 160.107 159.831 162.34 161.297 164.185C160.906 164.185 160.417 164.088 160.026 163.99ZM185.049 157.388C184.17 158.456 183.192 159.33 182.215 160.107C181.922 160.398 181.531 160.592 181.14 160.787C181.824 158.553 182.117 156.029 181.628 153.408C181.042 150.398 179.673 147.874 177.816 145.835C178.109 145.932 178.403 145.835 178.794 145.932C179.869 146.223 181.042 146.611 182.508 147.194C184.561 148.068 186.027 149.718 186.516 151.854C187.004 153.796 186.418 155.835 185.049 157.388Z" fill="#0D0B0A"/>
</svg>
