<svg width="240" height="210" viewBox="0 0 240 210" fill="none" xmlns="http://www.w3.org/2000/svg">
<path d="M0 32.8462C0 50.9793 22.5 65.6911 50.1724 65.6911C65.6034 65.6911 79.4827 61.0723 88.7068 53.8875C96.0344 48.1567 100.345 40.8009 100.345 32.8462C100.345 14.7131 77.8448 0.00136566 50.1724 0.00136566C25.7758 0.00136566 5.43103 11.4629 0.948276 26.6023C0.258622 28.6551 0 30.7079 0 32.8462Z" fill="#24201B"/>
<path d="M240 32.8449C240 50.978 217.5 65.6897 189.828 65.6897C174.397 65.6897 160.517 61.0709 151.293 53.8861C144.138 48.2409 139.741 40.885 139.741 32.8449C139.741 14.7118 162.241 0 189.914 0C214.31 0 234.655 11.4615 239.138 26.6009C239.741 28.6537 240 30.7065 240 32.8449Z" fill="#24201B"/>
<path d="M240 32.8454C240 50.9785 231.034 81.0008 203.362 81.0008C187.931 81.0008 160.517 61.0715 151.379 53.8866C151.293 53.459 151.207 53.1168 151.12 52.6892C147.931 36.0957 165.948 18.6468 191.379 13.9425C211.81 10.0935 230.862 15.5676 239.137 26.6014C239.741 28.6542 240 30.7071 240 32.8454Z" fill="#F48FB1"/>
<path d="M0 32.8454C0 50.9785 8.96551 81.0008 36.6379 81.0008C52.0689 81.0008 79.4827 61.0715 88.6206 53.8866C88.7068 53.459 88.793 53.1168 88.8792 52.6892C92.0689 36.0957 74.0517 18.6468 48.6207 13.9425C28.1896 10.0935 9.13793 15.5676 0.862069 26.6014C0.258622 28.6542 0 30.7071 0 32.8454Z" fill="#F48FB1"/>
<path d="M0 119.164C0 56.4679 56.8965 0.101357 120 0.101357C183.103 0.101357 240 56.5535 240 119.164C240 181.775 183.19 210.001 120 210.001C56.8103 210.001 0 181.775 0 119.164Z" fill="#24201B"/>
<path d="M65.861 118.805C53.5335 118.805 43.4473 108.797 43.4473 96.566C43.4473 84.3347 53.5335 74.3273 65.861 74.3273C78.1886 74.3273 88.2748 84.3347 88.2748 96.566C88.2748 108.797 78.1886 118.805 65.861 118.805ZM65.861 79.9725C56.6369 79.9725 49.1369 87.4139 49.1369 96.566C49.1369 105.718 56.6369 113.159 65.861 113.159C75.0852 113.159 82.5852 105.718 82.5852 96.566C82.5852 87.4139 75.0852 79.9725 65.861 79.9725Z" fill="#5CC7DC"/>
<path d="M170.345 118.805C158.017 118.805 147.931 108.797 147.931 96.566C147.931 84.3347 158.017 74.3273 170.345 74.3273C182.672 74.3273 192.759 84.3347 192.759 96.566C192.759 108.797 182.672 118.805 170.345 118.805ZM170.345 79.9725C161.121 79.9725 153.621 87.4139 153.621 96.566C153.621 105.718 161.121 113.159 170.345 113.159C179.569 113.159 187.069 105.718 187.069 96.566C187.069 87.4139 179.569 79.9725 170.345 79.9725Z" fill="#5CC7DC"/>
<path d="M120.001 105.72C111.38 105.72 104.397 112.648 104.397 121.201C104.397 128.985 110.259 120.603 117.845 119.148V124.109C117.845 125.307 118.794 126.248 120.001 126.248C121.207 126.248 122.156 125.307 122.156 124.109V119.148C129.742 120.603 135.604 129.07 135.604 121.201C135.604 112.648 128.621 105.72 120.001 105.72Z" fill="#F48FB1"/>
</svg>
